<svg width="80" height="80" viewBox="0 0 80 80" fill="none" xmlns="http://www.w3.org/2000/svg">
<circle cx="40" cy="40" r="40" fill="#F1F1F1"/>
<circle cx="40" cy="40" r="35" fill="#00A99D"/>
<path d="M45.75 26.5V38.75H28.5475L26.5 40.7975V26.5H45.75ZM47.5 23H24.75C23.7875 23 23 23.7875 23 24.75V49.25L30 42.25H47.5C48.4625 42.25 49.25 41.4625 49.25 40.5V24.75C49.25 23.7875 48.4625 23 47.5 23ZM56.25 30H52.75V45.75H30V49.25C30 50.2125 30.7875 51 31.75 51H51L58 58V31.75C58 30.7875 57.2125 30 56.25 30Z" fill="white"/>
</svg>
