<svg width="14" height="14" viewBox="0 0 14 14" fill="none" xmlns="http://www.w3.org/2000/svg">
<path d="M6.4165 4.08335H7.58317V5.25002H6.4165V4.08335ZM6.4165 6.41669H7.58317V9.91669H6.4165V6.41669ZM6.99984 1.16669C3.77984 1.16669 1.1665 3.78002 1.1665 7.00002C1.1665 10.22 3.77984 12.8334 6.99984 12.8334C10.2198 12.8334 12.8332 10.22 12.8332 7.00002C12.8332 3.78002 10.2198 1.16669 6.99984 1.16669ZM6.99984 11.6667C4.42734 11.6667 2.33317 9.57252 2.33317 7.00002C2.33317 4.42752 4.42734 2.33335 6.99984 2.33335C9.57234 2.33335 11.6665 4.42752 11.6665 7.00002C11.6665 9.57252 9.57234 11.6667 6.99984 11.6667Z" fill="#999999"/>
</svg>
