<svg width="12" height="11" viewBox="0 0 12 11" fill="none" xmlns="http://www.w3.org/2000/svg">
<path d="M11.7336 9.90285C12.0888 9.54763 12.0888 8.97381 11.7336 8.6186L8.19962 5.08463L11.7336 1.55067C12.0888 1.19545 12.0888 0.621634 11.7336 0.266416C11.3784 -0.0888024 10.8046 -0.0888024 10.4493 0.266415L6.26869 4.44706C5.91347 4.80228 5.91347 5.37609 6.26869 5.73131L10.4402 9.90285C10.7954 10.2581 11.3784 10.2581 11.7336 9.90285Z" fill="#D9D9D9"/>
<path d="M5.73131 9.90285C6.08653 9.54763 6.08653 8.97381 5.73131 8.6186L2.19734 5.08463L5.73131 1.55067C6.08653 1.19545 6.08653 0.621632 5.73131 0.266414C5.37609 -0.0888039 4.80228 -0.0888039 4.44706 0.266414L0.266414 4.44706C-0.0888038 4.80228 -0.0888038 5.37609 0.266414 5.73131L4.44706 9.91195C4.79317 10.2581 5.37609 10.2581 5.73131 9.90285Z" fill="#D9D9D9"/>
<path d="M11.7336 9.90285C12.0888 9.54763 12.0888 8.97381 11.7336 8.6186L8.19962 5.08463L11.7336 1.55067C12.0888 1.19545 12.0888 0.621634 11.7336 0.266416C11.3784 -0.0888024 10.8046 -0.0888024 10.4493 0.266415L6.26869 4.44706C5.91347 4.80228 5.91347 5.37609 6.26869 5.73131L10.4402 9.90285C10.7954 10.2581 11.3784 10.2581 11.7336 9.90285Z" fill="#D9D9D9"/>
<path d="M5.73131 9.90285C6.08653 9.54763 6.08653 8.97381 5.73131 8.6186L2.19734 5.08463L5.73131 1.55067C6.08653 1.19545 6.08653 0.621632 5.73131 0.266414C5.37609 -0.0888039 4.80228 -0.0888039 4.44706 0.266414L0.266414 4.44706C-0.0888038 4.80228 -0.0888038 5.37609 0.266414 5.73131L4.44706 9.91195C4.79317 10.2581 5.37609 10.2581 5.73131 9.90285Z" fill="#D9D9D9"/>
</svg>
