<svg width="28" height="20" viewBox="0 0 28 20" fill="none" xmlns="http://www.w3.org/2000/svg">
<path d="M19.9436 11.4125C21.6873 12.575 22.9091 14.15 22.9091 16.25V20H28V16.25C28 13.525 23.4564 11.9125 19.9436 11.4125Z" fill="current"/>
<path d="M17.8182 10C20.6309 10 22.9091 7.7625 22.9091 5C22.9091 2.2375 20.6309 0 17.8182 0C17.22 0 16.66 0.125 16.1255 0.3C17.1818 1.5875 17.8182 3.225 17.8182 5C17.8182 6.775 17.1818 8.4125 16.1255 9.7C16.66 9.875 17.22 10 17.8182 10Z" fill="current"/>
<path d="M10.1818 10C12.9945 10 15.2727 7.7625 15.2727 5C15.2727 2.2375 12.9945 0 10.1818 0C7.36909 0 5.09091 2.2375 5.09091 5C5.09091 7.7625 7.36909 10 10.1818 10ZM10.1818 2.5C11.5818 2.5 12.7273 3.625 12.7273 5C12.7273 6.375 11.5818 7.5 10.1818 7.5C8.78182 7.5 7.63636 6.375 7.63636 5C7.63636 3.625 8.78182 2.5 10.1818 2.5Z" fill="current"/>
<path d="M10.1818 11.25C6.78364 11.25 0 12.925 0 16.25V20H20.3636V16.25C20.3636 12.925 13.58 11.25 10.1818 11.25ZM17.8182 17.5H2.54545V16.2625C2.8 15.3625 6.74545 13.75 10.1818 13.75C13.6182 13.75 17.5636 15.3625 17.8182 16.25V17.5Z" fill="current"/>
</svg>
