<svg width="12" height="8" viewBox="0 0 12 8" fill="none" xmlns="http://www.w3.org/2000/svg">
<path d="M8.335 4.565C9.02 5.03 9.5 5.66 9.5 6.5V8H11.5V6.5C11.5 5.41 9.715 4.765 8.335 4.565Z" fill="#555555"/>
<path d="M7.5 4C8.605 4 9.5 3.105 9.5 2C9.5 0.895 8.605 0 7.5 0C7.265 0 7.045 0.0499999 6.835 0.12C7.25 0.635 7.5 1.29 7.5 2C7.5 2.71 7.25 3.365 6.835 3.88C7.045 3.95 7.265 4 7.5 4Z" fill="#555555"/>
<path d="M4.5 4C5.605 4 6.5 3.105 6.5 2C6.5 0.895 5.605 0 4.5 0C3.395 0 2.5 0.895 2.5 2C2.5 3.105 3.395 4 4.5 4ZM4.5 1C5.05 1 5.5 1.45 5.5 2C5.5 2.55 5.05 3 4.5 3C3.95 3 3.5 2.55 3.5 2C3.5 1.45 3.95 1 4.5 1Z" fill="#555555"/>
<path d="M4.5 4.5C3.165 4.5 0.5 5.17 0.5 6.5V8H8.5V6.5C8.5 5.17 5.835 4.5 4.5 4.5ZM7.5 7H1.5V6.505C1.6 6.145 3.15 5.5 4.5 5.5C5.85 5.5 7.4 6.145 7.5 6.5V7Z" fill="#555555"/>
</svg>
