<svg width="12" height="11" viewBox="0 0 12 11" fill="none" xmlns="http://www.w3.org/2000/svg">
<path d="M0.266414 0.437973C-0.0888045 0.793191 -0.0888045 1.36701 0.266414 1.72222L3.80038 5.25619L0.266414 8.79015C-0.0888045 9.14537 -0.0888045 9.71919 0.266414 10.0744C0.621632 10.4296 1.19545 10.4296 1.55066 10.0744L5.73131 5.89376C6.08653 5.53854 6.08653 4.96473 5.73131 4.60951L1.55977 0.437973C1.20455 0.0827552 0.621632 0.0827552 0.266414 0.437973Z" fill="#D9D9D9"/>
<path d="M6.26869 0.437973C5.91347 0.793192 5.91347 1.36701 6.26869 1.72222L9.80266 5.25619L6.26869 8.79015C5.91347 9.14537 5.91347 9.71919 6.26869 10.0744C6.62391 10.4296 7.19772 10.4296 7.55294 10.0744L11.7336 5.89376C12.0888 5.53854 12.0888 4.96473 11.7336 4.60951L7.55294 0.428865C7.20683 0.0827551 6.62391 0.0827553 6.26869 0.437973Z" fill="#D9D9D9"/>
</svg>
